<?xml version="1.0" standalone="no"?>
<!DOCTYPE svg PUBLIC "-//W3C//DTD SVG 20010904//EN"
 "http://www.w3.org/TR/2001/REC-SVG-20010904/DTD/svg10.dtd">
<svg version="1.0" xmlns="http://www.w3.org/2000/svg"
 width="250.000000pt" height="250.000000pt" viewBox="0 0 250.000000 250.000000"
 preserveAspectRatio="xMidYMid meet">
<metadata>
Created by potrace 1.11, written by Peter Selinger 2001-2013
</metadata>
<g transform="translate(0.000000,250.000000) scale(0.100000,-0.100000)"
fill="#000000" stroke="none">
<path d="M1368 2452 c-24 -2 -38 -8 -38 -17 0 -10 7 -12 28 -7 15 4 48 7 74 7
26 -1 45 2 42 6 -5 9 -60 15 -106 11z"/>
<path d="M1005 2431 c-11 -5 -32 -7 -47 -7 -18 1 -28 -4 -31 -16 -3 -10 -12
-18 -20 -18 -8 0 -18 -7 -21 -16 -4 -11 -14 -14 -29 -11 -31 8 -111 -52 -145
-109 -20 -34 -36 -47 -65 -56 -56 -17 -139 -118 -97 -118 6 0 10 -18 10 -40 0
-41 -21 -57 -34 -24 -5 13 -11 12 -46 -7 -33 -19 -44 -34 -71 -98 -17 -42 -36
-82 -42 -89 -6 -8 -11 -28 -11 -45 -1 -27 -5 -32 -28 -35 -20 -2 -28 -9 -28
-23 0 -10 5 -19 10 -19 6 0 10 -13 10 -30 0 -23 -4 -30 -20 -30 -40 0 -20 -59
21 -64 52 -5 67 -40 28 -64 -18 -12 -23 -10 -40 10 -17 19 -22 20 -29 8 -6 -8
-10 -18 -10 -22 0 -5 -9 -8 -19 -8 -11 0 -23 -4 -26 -10 -3 -5 2 -10 12 -10
16 0 19 -9 20 -62 1 -60 -4 -80 -43 -148 -20 -35 -17 -84 6 -130 21 -41 25
-43 98 -42 30 0 42 -4 42 -14 0 -10 -14 -14 -54 -14 -77 0 -86 -5 -86 -51 0
-21 4 -39 8 -39 4 0 13 -12 19 -27 7 -16 18 -36 25 -47 10 -15 10 -20 1 -23
-7 -3 -13 -18 -13 -34 0 -16 -4 -29 -10 -29 -5 0 -10 -9 -10 -20 0 -11 -4 -20
-10 -20 -5 0 -10 -4 -10 -10 0 -5 9 -10 20 -10 13 0 20 -7 20 -20 0 -11 5 -20
10 -20 6 0 10 -34 10 -83 0 -69 3 -87 18 -100 10 -10 22 -17 26 -17 5 0 23
-12 40 -28 18 -15 46 -38 64 -51 38 -28 40 -38 10 -43 -20 -3 -19 -5 13 -38
20 -19 52 -46 72 -60 20 -14 37 -29 37 -35 1 -13 124 -72 167 -80 22 -4 33
-12 33 -24 0 -9 9 -23 20 -31 11 -8 20 -20 20 -26 0 -7 10 -9 25 -6 21 3 25 0
25 -18 0 -21 4 -21 83 -20 45 1 105 -1 133 -5 55 -8 113 5 134 30 14 16 20
104 8 111 -12 7 -10 44 2 44 6 0 9 12 7 28 -5 32 -13 32 -111 -2 -57 -20 -68
-22 -73 -9 -8 20 1 26 85 58 77 30 85 36 97 73 6 21 4 23 -14 17 -26 -8 -29
22 -4 40 11 8 18 32 21 73 5 73 -3 112 -23 112 -21 0 -19 37 3 42 16 5 17 23
17 244 -1 229 -2 241 -24 284 -13 25 -37 60 -54 78 -24 25 -29 35 -18 41 12 8
24 26 52 79 7 12 20 22 31 22 10 0 18 5 18 10 0 6 -6 10 -14 10 -8 0 -16 13
-18 30 -4 24 -1 30 14 30 10 0 18 3 18 6 0 10 -29 34 -42 34 -18 0 -58 44 -58
65 0 9 13 22 30 28 18 7 30 19 30 29 0 11 7 18 20 18 11 0 20 5 20 10 0 6 -6
10 -13 10 -9 0 -19 26 -29 70 -14 67 -14 70 4 70 15 0 18 8 18 50 0 28 -4 50
-10 50 -5 0 -10 9 -10 20 0 11 3 20 8 20 17 0 28 45 18 78 -8 26 -7 36 5 43
11 8 11 12 2 16 -16 6 -17 55 -2 70 9 9 6 10 -10 6 -21 -5 -23 -3 -20 42 3 46
1 49 -29 63 -40 20 -44 52 -6 52 22 0 25 3 20 23 -3 12 -6 28 -6 36 0 7 -6 11
-15 7 -8 -3 -30 1 -49 9 -39 16 -61 18 -91 6z"/>
<path d="M1498 2433 c7 -3 16 -2 19 1 4 3 -2 6 -13 5 -11 0 -14 -3 -6 -6z"/>
<path d="M1283 2373 c-7 -3 -13 -11 -13 -19 0 -11 12 -12 58 -7 72 9 256 8
302 -1 19 -4 53 -11 75 -16 55 -13 63 -12 39 4 -33 24 -141 38 -299 41 -82 1
-156 0 -162 -2z"/>
<path d="M1272 2299 c3 -10 33 -14 119 -15 89 -1 121 -5 141 -18 22 -14 27
-15 37 -2 9 11 19 12 36 6 14 -5 25 -5 27 0 2 5 20 4 43 -4 22 -8 63 -16 90
-20 28 -3 66 -8 85 -12 24 -5 32 -3 25 4 -16 16 -144 48 -205 51 -30 2 -62 7
-71 11 -8 5 -31 6 -50 3 -40 -7 -52 -7 -183 3 -81 5 -98 4 -94 -7z"/>
<path d="M1303 2252 c-18 -2 -33 -8 -33 -14 0 -11 166 -5 177 6 4 3 4 6 2 7
-17 3 -120 4 -146 1z"/>
<path d="M1476 2222 c-3 -5 -32 -13 -63 -16 -87 -10 -113 -17 -113 -28 0 -11
88 -4 155 14 90 23 294 11 355 -22 12 -6 34 -9 49 -7 16 3 47 -3 70 -14 22
-10 41 -13 41 -8 0 16 -79 47 -150 58 -152 24 -335 36 -344 23z"/>
<path d="M1277 2183 c-4 -3 -7 -11 -7 -17 0 -6 5 -5 12 2 6 6 9 14 7 17 -3 3
-9 2 -12 -2z"/>
<path d="M1510 2172 c0 -5 33 -12 73 -14 158 -11 378 -117 520 -251 45 -42 54
-43 35 -2 -13 28 -112 99 -215 155 -35 18 -63 36 -63 40 0 19 -119 55 -215 65
-27 3 -69 8 -92 11 -24 3 -43 1 -43 -4z"/>
<path d="M1385 2140 c-22 -5 -57 -9 -77 -9 -21 -1 -38 -6 -38 -11 0 -6 13 -8
32 -5 83 15 280 5 336 -16 15 -6 27 -9 27 -8 0 4 53 -14 100 -36 28 -12 79
-33 113 -46 35 -13 75 -34 89 -47 13 -12 29 -20 34 -16 15 9 -32 41 -102 67
-35 14 -93 38 -129 55 -81 37 -120 49 -190 57 -30 4 -64 9 -75 11 -50 10 -83
11 -120 4z"/>
<path d="M1882 2118 c2 -6 14 -13 25 -14 23 -4 117 -56 146 -82 16 -15 17 -15
12 0 -8 19 -78 68 -99 68 -8 0 -17 4 -20 9 -10 15 -68 33 -64 19z"/>
<path d="M1274 2078 c-7 -10 73 -5 83 6 4 4 -12 6 -35 5 -24 -2 -46 -7 -48
-11z"/>
<path d="M1406 2071 c-4 -6 -18 -11 -31 -11 -26 0 -109 -30 -102 -36 2 -3 44
5 93 17 117 28 224 22 349 -19 95 -32 117 -34 66 -7 -80 41 -359 83 -375 56z"/>
<path d="M1537 2024 c-1 -1 -33 -5 -72 -8 -115 -10 -146 -16 -169 -32 l-21
-16 23 6 c12 3 30 8 40 10 60 15 220 24 275 15 20 -4 37 -2 37 2 0 5 -10 9
-23 9 -13 0 -27 3 -30 7 -6 6 -55 12 -60 7z"/>
<path d="M1690 1986 c19 -7 57 -22 83 -34 27 -12 55 -22 62 -22 8 0 63 -32
122 -72 111 -74 216 -170 271 -247 18 -24 32 -38 32 -30 0 17 -104 152 -160
207 -51 50 -226 152 -261 152 -8 0 -19 4 -24 9 -13 11 -131 51 -148 50 -6 -1
4 -7 23 -13z"/>
<path d="M1870 1975 c0 -3 37 -23 83 -45 69 -34 128 -77 241 -176 34 -31 11 3
-41 60 -45 49 -153 126 -153 110 0 -4 -6 -2 -13 4 -15 13 -117 53 -117 47z"/>
<path d="M1500 1963 c0 -6 35 -13 78 -16 80 -6 156 -28 232 -67 155 -79 316
-224 389 -348 24 -41 45 -71 48 -69 12 12 -101 184 -166 251 -109 114 -288
209 -456 241 -74 14 -125 17 -125 8z"/>
<path d="M1327 1945 c-26 -7 -50 -15 -54 -18 -11 -12 6 -20 19 -10 14 11 79
22 141 22 20 1 37 6 37 11 0 13 -82 10 -143 -5z"/>
<path d="M1383 1913 c-13 -2 -23 -8 -23 -13 0 -5 48 -7 108 -5 73 2 125 -1
162 -11 75 -20 194 -65 198 -76 2 -4 9 -8 16 -8 16 0 62 -48 54 -56 -4 -3 -20
2 -37 11 -17 8 -31 11 -31 6 0 -5 8 -12 19 -16 24 -7 56 -43 47 -52 -4 -4 -15
-2 -24 5 -9 6 -30 19 -47 28 l-30 16 29 -31 c36 -37 28 -51 -12 -23 -15 12
-34 22 -42 24 -7 2 -21 10 -30 18 -22 19 -83 54 -92 52 -4 -1 -23 5 -43 14
-55 23 -54 9 0 -15 26 -12 49 -21 52 -21 17 0 139 -89 175 -128 100 -109 187
-288 214 -439 3 -15 9 -46 14 -68 12 -51 12 -65 1 -65 -5 0 -16 30 -25 68 -69
280 -156 441 -287 530 -47 32 -153 72 -189 72 -12 0 -30 5 -41 10 -13 7 -25 8
-37 1 -14 -8 -14 -11 -2 -11 108 -8 185 -37 265 -100 63 -50 117 -114 149
-177 20 -39 86 -236 81 -242 -10 -9 -26 15 -45 67 -39 105 -79 190 -109 232
-39 53 -81 89 -136 117 -85 44 -146 62 -255 76 -3 0 -16 -3 -30 -7 -14 -4 -43
-8 -65 -10 -22 -2 -46 -4 -52 -5 -7 0 -13 -8 -13 -16 0 -13 4 -14 21 -5 45 24
210 26 278 3 45 -15 161 -73 147 -73 -4 0 17 -27 46 -60 30 -33 73 -97 96
-143 43 -87 64 -167 43 -167 -6 0 -11 5 -11 11 0 24 -89 197 -129 250 -78 104
-163 150 -308 166 -45 5 -183 -31 -183 -48 0 -11 13 -12 26 0 17 15 92 29 163
29 147 0 263 -98 364 -310 39 -81 45 -102 25 -96 -7 3 -35 49 -63 104 -55 109
-144 209 -205 233 -19 7 -44 17 -55 21 -11 5 -48 11 -81 15 -48 4 -65 2 -77
-10 -9 -8 -20 -15 -25 -15 -19 0 -72 -35 -72 -48 0 -9 13 -6 43 9 68 36 74 38
116 45 49 8 123 -17 172 -57 46 -38 32 -45 -29 -14 -27 14 -58 25 -68 25 -10
0 -33 5 -51 12 -30 11 -39 9 -81 -12 -56 -30 -102 -69 -102 -87 0 -9 7 -7 23
8 47 45 82 48 180 17 72 -22 112 -59 151 -136 24 -47 57 -154 50 -161 -8 -8
-43 40 -50 69 -13 60 -38 112 -64 136 -34 32 -124 73 -163 74 -59 0 -127 -60
-127 -112 l1 -33 21 40 c11 22 32 52 46 68 22 23 32 27 64 22 87 -13 133 -48
167 -126 17 -38 20 -61 16 -130 -10 -197 -33 -215 -34 -28 -1 87 -6 142 -15
164 -26 62 -111 81 -138 31 -7 -11 -13 -57 -15 -101 -3 -90 -6 -112 -23 -175
-13 -51 -67 -167 -81 -176 -5 -3 -9 -22 -9 -42 l0 -37 20 33 c17 28 40 43 40
27 0 -12 -40 -84 -50 -90 -5 -3 -10 -23 -10 -43 0 -33 1 -34 14 -16 24 32 29
8 7 -35 -24 -46 -28 -69 -8 -49 21 22 101 139 134 198 44 78 72 198 76 335 1
36 -13 127 -23 145 -13 24 -13 30 1 30 24 0 42 -75 43 -185 1 -151 -11 -211
-70 -328 -30 -59 -150 -243 -164 -252 -6 -4 -10 -18 -10 -32 0 -25 1 -26 20
-8 10 9 41 46 67 81 48 63 63 76 63 52 0 -18 -38 -78 -49 -78 -5 0 -14 -13
-19 -29 -6 -16 -26 -42 -46 -57 -27 -22 -36 -37 -36 -59 l0 -29 48 47 c26 26
51 47 55 47 17 0 3 -22 -48 -75 -89 -91 -64 -96 31 -6 85 80 113 97 80 46 -25
-38 -142 -155 -155 -155 -6 0 -11 -7 -11 -15 0 -8 2 -15 5 -15 12 0 112 80
150 119 39 41 55 50 55 31 0 -18 -66 -84 -137 -137 -40 -30 -73 -59 -73 -65 0
-11 33 8 90 52 39 31 80 47 80 32 0 -10 -57 -57 -94 -78 -11 -6 -22 -16 -24
-23 -5 -16 78 31 128 71 44 35 83 39 48 4 -33 -32 -184 -137 -204 -142 -13 -4
-24 -12 -24 -20 0 -15 24 -9 50 11 8 6 35 23 60 37 25 15 76 49 114 77 37 28
72 48 77 45 11 -7 2 -16 -95 -92 -43 -35 -93 -69 -111 -76 -18 -8 -36 -19 -39
-25 -4 -6 -18 -11 -32 -11 -15 0 -24 -6 -24 -16 0 -8 3 -14 8 -12 156 75 212
92 212 66 0 -12 -43 -35 -120 -63 -29 -11 -32 -15 -17 -21 11 -4 33 0 53 10
20 9 60 16 95 16 105 0 197 19 244 51 23 16 47 29 52 29 15 0 104 78 93 82 -6
2 17 26 51 53 80 64 90 91 13 32 -92 -69 -144 -101 -152 -92 -8 8 49 60 138
122 70 49 150 129 150 149 0 6 7 14 15 18 8 3 15 11 15 18 0 8 16 52 36 98 39
94 59 150 68 195 4 17 9 41 11 55 17 85 -11 245 -60 335 -17 33 -35 76 -39 95
-3 19 -15 53 -25 75 -10 22 -29 69 -41 105 -27 78 -65 136 -122 184 -23 20
-39 39 -35 42 11 11 76 -37 114 -84 21 -25 54 -61 74 -79 35 -31 149 -245 149
-278 0 -8 4 -15 9 -15 5 0 16 -17 24 -37 9 -21 16 -30 16 -21 1 10 -12 44 -28
75 -16 32 -51 101 -76 153 -79 161 -185 272 -345 363 -54 32 -107 58 -117 60
-10 1 -22 5 -28 9 -5 3 -30 9 -55 13 -25 4 -54 9 -65 11 -31 7 -177 11 -202 7z"/>
<path d="M1283 1893 c-7 -2 -13 -9 -13 -14 0 -14 34 -11 56 6 18 14 18 14 -6
14 -14 0 -31 -3 -37 -6z"/>
<path d="M1430 1873 c-44 -13 -45 -14 -31 -22 7 -5 32 -4 57 0 24 5 52 6 61 3
17 -5 17 -5 1 6 -20 13 -66 19 -88 13z"/>
<path d="M1284 1844 c-17 -14 -17 -15 -1 -10 10 3 25 6 33 6 8 0 14 5 14 10 0
15 -24 12 -46 -6z"/>
<path d="M1575 1846 c26 -11 236 -76 243 -76 35 2 -156 69 -213 75 -22 3 -35
3 -30 1z"/>
<path d="M1410 1820 c-17 -11 10 -19 34 -10 19 6 19 7 -1 12 -11 3 -26 2 -33
-2z"/>
<path d="M1300 1800 c-19 -11 -31 -19 -26 -20 15 0 91 23 101 32 18 16 -41 7
-75 -12z"/>
<path d="M1473 1814 c8 -8 76 -11 71 -3 -2 4 -20 7 -40 7 -19 0 -33 -2 -31 -4z"/>
<path d="M1314 1758 c-16 -12 -32 -24 -36 -27 -7 -6 73 -7 147 -2 31 2 35 4
20 10 -11 4 -32 6 -47 5 -31 -4 -37 10 -10 25 14 9 12 10 -14 11 -17 0 -44
-10 -60 -22z"/>
<path d="M1550 1766 c0 -2 7 -7 16 -10 8 -3 12 -2 9 4 -6 10 -25 14 -25 6z"/>
<path d="M2100 1507 c0 -7 7 -23 16 -35 8 -12 12 -22 9 -22 -3 0 1 -12 9 -27
35 -65 117 -274 135 -343 15 -59 19 -68 20 -40 1 37 -19 97 -93 280 -71 174
-96 223 -96 187z"/>
<path d="M2260 1430 c0 -14 8 -34 17 -45 15 -19 15 -18 9 15 -8 43 -26 64 -26
30z"/>
<path d="M1348 1363 c-55 -74 -78 -126 -78 -180 l1 -48 15 35 c9 19 17 42 18
50 0 8 13 35 28 60 14 25 29 55 33 67 3 13 17 26 31 29 14 4 23 11 21 18 -8
25 -35 14 -69 -31z"/>
<path d="M1324 1203 c-3 -27 -17 -77 -30 -112 -13 -35 -24 -82 -24 -105 l1
-41 24 51 c42 91 74 254 49 254 -8 0 -16 -19 -20 -47z"/>
<path d="M1270 194 c0 -14 3 -14 15 -4 8 7 15 14 15 16 0 2 -7 4 -15 4 -8 0
-15 -7 -15 -16z"/>
<path d="M1283 53 c9 -2 25 -2 35 0 9 3 1 5 -18 5 -19 0 -27 -2 -17 -5z"/>
</g>
</svg>
